<svg height="36.354" width="107.924" xmlns="http://www.w3.org/2000/svg"><g fill="#ad1aac"><path d="M10.294 27.794h1.138v1.625h.054a2.825 2.825 0 0 1 2.708-1.788v1.138c-1.463.054-2.167.975-2.709 2.655v4.607h-1.137v-8.237zM17.933 36.245c-2.276 0-3.413-1.9-3.413-4.28s1.138-4.28 3.413-4.28 3.413 1.9 3.413 4.28c-.054 2.384-1.192 4.28-3.413 4.28m0-7.639c-1.354 0-2.276 1.192-2.276 3.3s.867 3.3 2.276 3.3c1.354 0 2.276-1.192 2.276-3.3-.054-2.113-.921-3.3-2.276-3.3M24.814 30.72l1.788-2.926h1.246l-2.33 3.955 2.709 4.334h-1.3l-2.113-3.413-2 3.413h-1.251l2.6-4.334-2.437-3.955h1.3zM28.769 29.365a3.381 3.381 0 0 1 3.088-1.734c1.409 0 2.871.65 2.871 2.492v4.172a4.774 4.774 0 0 0 .217 1.788h-1.192l-.108-1.138a3.736 3.736 0 0 1-2.763 1.3 2.188 2.188 0 0 1-2.384-2.275c0-1.842 1.409-2.709 5.093-3.359v-.433c0-1.084-.7-1.517-1.68-1.517a2.126 2.126 0 0 0-2.113 1.3zm4.822 2.221c-2.655.488-3.9 1.246-3.9 2.384a1.4 1.4 0 0 0 1.354 1.3 3.846 3.846 0 0 0 2.546-1.354zM42.747 24.543v9.7a10.622 10.622 0 0 0 .054 1.842h-1.029l-.163-.813a2.664 2.664 0 0 1-2.167.975c-1.463-.004-3.413-.977-3.413-4.282 0-3.2 1.95-4.28 3.359-4.28a3.392 3.392 0 0 1 2.167.921l.054.054v-4.009h1.138zm-1.138 5.2a2.97 2.97 0 0 0-2.113-1.138c-1.354 0-2.33.867-2.33 3.359 0 2.113.921 3.251 2.33 3.251a2.866 2.866 0 0 0 2.113-1.138zM49.899 36.083v-1.137h-.054a3.341 3.341 0 0 1-2.438 1.3 2.2 2.2 0 0 1-2.384-2.438v-6.014h1.138v6.014c0 1.084.542 1.463 1.354 1.463a3.942 3.942 0 0 0 2.384-1.246v-6.231h1.138v8.289zM53.203 33.97a2.9 2.9 0 0 0 2.384 1.3c1.246 0 1.788-.65 1.788-1.354 0-2.113-4.93-.975-4.822-4.009.054-1.409 1.138-2.276 2.763-2.221a3.486 3.486 0 0 1 2.817 1.463l-.813.7a2.63 2.63 0 0 0-2.113-1.138c-.975 0-1.517.488-1.517 1.246 0 1.788 4.822.867 4.822 3.955 0 1.625-1.409 2.438-2.926 2.438a4.058 4.058 0 0 1-3.304-1.563zM60.085 27.794v-2.709h1.138v2.709h1.9v.975h-1.9v5.906c0 .379.271.6.921.6.379 0 .7-.054 1.029-.054v.921a6.177 6.177 0 0 1-1.354.108c-1.246 0-1.788-.325-1.788-1.354v-6.127h-1.355v-.975zM64.094 29.365a3.381 3.381 0 0 1 3.088-1.734c1.409 0 2.871.65 2.871 2.492v4.172a4.774 4.774 0 0 0 .217 1.788h-1.192l-.108-1.138a3.736 3.736 0 0 1-2.763 1.3 2.188 2.188 0 0 1-2.384-2.276c0-1.842 1.409-2.709 5.093-3.359v-.433c0-1.084-.7-1.517-1.68-1.517a2.126 2.126 0 0 0-2.113 1.3zm4.822 2.221c-2.655.488-3.9 1.246-3.9 2.384a1.4 1.4 0 0 0 1.354 1.3 3.846 3.846 0 0 0 2.546-1.354zM72.221 27.794v-2.709h1.138v2.709h1.9v.975h-1.9v5.906c0 .379.271.6.921.6.379 0 .7-.054 1.029-.054v.921a6.177 6.177 0 0 1-1.354.108c-1.246 0-1.788-.325-1.788-1.354v-6.127h-1.355v-.975z"/></g><path d="m87.932 11.649 10.511-4.443c2.059 1.354 3.522 3.088 3.847 4.876z" fill="#43b02a"/><path d="M84.14 3.034h-.108c-4.93 0-3.63 2.655-2.113 5.472z" fill="#ad1aac"/><path d="M97.251 6.502a27.462 27.462 0 0 0-5.906-2.384l-5.58 6.014z" fill="#4ec3e0"/><path d="m83.489 10.348 6.556-6.556a26.73 26.73 0 0 0-5.256-.758z" fill="#ad1aac"/><path d="M91.565 21.076a25.981 25.981 0 0 0 6.014-2.492l-11.814-3.793z" fill="#4ec3e0"/><path d="m87.932 13.382 10.836 4.659c2-1.571 3.359-3.3 3.576-5.039z" fill="#43b02a"/><path d="M82.027 16.47c-1.517 2.871-3.034 5.743 2 5.743h.334zM84.898 22.213a27.923 27.923 0 0 0 5.418-.813l-6.772-6.772z" fill="#ad1aac"/><path d="M0 21.996V4.93h9.806v2.492h-6.88v4.443H8.94v2.492H2.926v5.147h7.26v2.492zM18.908 9.265h2.655l-4.009 12.732h-2.547L10.944 9.265h2.709l2.546 8.994h.108zM23.622 21.997V9.265h2.492v1.3h.108a4.963 4.963 0 0 1 3.36-1.517l.217 2.655a6.816 6.816 0 0 0-.867-.054 5.225 5.225 0 0 0-2.709.921v9.478h-2.601zM40.743 16.362h-6.989v1.842c0 1.409.758 1.842 2.167 1.842 1.3 0 2.221-.271 2.221-1.842l2.6.217c-.054 2.817-2.167 3.738-4.822 3.738-2.98 0-4.822-1.084-4.822-4.063v-4.984c0-2.98 1.788-4.118 4.822-4.118 2.98 0 4.822 1.138 4.822 4.118zm-2.655-2.168v-1.082c0-1.409-.758-1.95-2.167-1.95s-2.167.542-2.167 1.95v1.082zM43.451 21.997V9.265h2.492v1.246h.108a5.559 5.559 0 0 1 3.467-1.463c2.221 0 3.142 1.409 3.142 3.684v9.316h-2.655v-8.666c0-1.246-.325-1.95-1.517-1.95a3.866 3.866 0 0 0-2.384 1.192v9.481h-2.653zM54.721 11.432V9.265h9.156v2.167l-6.231 8.233v.163h6.339v2.167h-9.481V19.83l6.176-8.289v-.108zM65.502 13.003c0-2.98 1.842-4.009 4.822-4.009s4.876.975 4.876 4.009v5.147c0 2.926-1.788 4.063-4.876 4.063s-4.822-1.138-4.822-4.063zm2.655 5.2c0 1.409.813 1.842 2.221 1.842s2.221-.488 2.221-1.842v-5.146c0-1.409-.813-1.842-2.221-1.842s-2.221.488-2.221 1.842zM76.175 9.373h-.542v-.325h1.517v.325h-.542v1.517h-.433zM77.367 9.048h.6l.433 1.246.433-1.246h.542v1.842h-.379v-1.3l-.433 1.3h-.325l-.488-1.3v1.3h-.383z" fill="#007a33"/><path d="M103.644 7.531 99.418 0h8.506z"/></svg>