<svg height="34.38" width="94.136" xmlns="http://www.w3.org/2000/svg"><g fill="#fff"><path d="M43.957 17.557a1.6 1.6 0 0 1 1.708-1.582c1.31 0 1.6.542 1.851 1.124l.313.749h.228l.126-2.186a14.172 14.172 0 0 0-2.165-.249c-2.58 0-3.643 1.6-3.643 2.748 0 2.955 4.642 2.517 4.642 5.12 0 1.207-1 1.727-2.039 1.727a2.093 2.093 0 0 1-1.331-.417 4.042 4.042 0 0 1-.729-1.644h-.228l-.126 2.434a13.963 13.963 0 0 0 1.893.189c3.312 0 4.143-1.624 4.143-2.873 0-3.329-4.642-2.664-4.642-5.141M55.591 23.862a2.431 2.431 0 0 1-1.54.812 1.164 1.164 0 0 1-1.04-1.31v-7.035h2.393v-.563h-2.393v-2.435h-.292a4.461 4.461 0 0 1-2.956 2.622v.375h1.665v3.5c0 1.166-.063 2.914-.063 3.851 0 1.684 1.084 1.936 1.624 1.936.937 0 1.6-.312 2.914-1.354l-.312-.4M64.707 19.264c.458-.021.6-.146.6-.645 0-1.811-1.166-3.205-3.621-3.205-3.206 0-4.787 2.664-4.787 5.181 0 2.935 1.769 4.976 4.412 4.976a4.669 4.669 0 0 0 3.683-1.5l-.292-.374a3.2 3.2 0 0 1-2.351.936c-2.457 0-3.58-2.351-3.58-4.663 0-.228.022-.479.041-.706zm-3.37-3.414c1.478 0 2.1 1 2.1 2.394v.375c-.314.02-.6.02-1.27.041l-3.309.083c.291-1.727 1.208-2.893 2.477-2.893M69.202 23.157v-8.242c0-1.415.083-2.83.126-4.245a31.372 31.372 0 0 1-3.414.166v.291l1.228.394a.511.511 0 0 1 .334.231 7.806 7.806 0 0 1 .146 1.769v9.636c0 1.02-.083 1.373-.728 1.582l-.979.333v.29a22.969 22.969 0 0 1 2.436-.166c.852 0 1.726.083 2.56.166v-.29l-1.021-.333c-.644-.209-.687-.562-.687-1.582M75.675 24.737c-.644-.208-.685-.562-.685-1.581v-8.242c0-1.415.082-2.83.125-4.246a31.157 31.157 0 0 1-3.413.166v.292l1.228.394a.513.513 0 0 1 .333.23 7.844 7.844 0 0 1 .145 1.769v9.637c0 1.019-.082 1.373-.728 1.581l-.977.332v.291a22.911 22.911 0 0 1 2.435-.165c.854 0 1.727.083 2.559.165v-.291l-1.02-.332M85.165 23.714v-5.8c0-1.937-1.456-2.5-3.121-2.5a4.357 4.357 0 0 0-3.809 2.393l.52.292a3.383 3.383 0 0 1 2.768-1.6c1.187 0 2.1.436 2.1 1.976v1.1h-.146c-3.434 0-5.848 1.063-5.848 3.435a2.443 2.443 0 0 0 2.746 2.561 3.933 3.933 0 0 0 3.226-1.978h.043l-.061 1.768a9.477 9.477 0 0 1 1.517-.166 10.845 10.845 0 0 1 1.6.166v-.29c-1.311-.25-1.541-.354-1.541-1.353m-1.58-1.852a2.414 2.414 0 0 1-2.436 2.621 1.621 1.621 0 0 1-1.768-1.81c0-2.247 2.518-2.539 4.2-2.539v1.727M39.657 23.714v-5.8c0-1.937-1.457-2.5-3.122-2.5a4.359 4.359 0 0 0-3.81 2.393l.521.292a3.382 3.382 0 0 1 2.767-1.6c1.187 0 2.1.436 2.1 1.976v1.1h-.145c-3.434 0-5.847 1.063-5.847 3.435a2.444 2.444 0 0 0 2.748 2.561 3.932 3.932 0 0 0 3.224-1.978h.043l-.063 1.768a9.513 9.513 0 0 1 1.519-.166 10.836 10.836 0 0 1 1.6.166v-.29c-1.311-.25-1.539-.354-1.539-1.353m-1.582-1.852a2.413 2.413 0 0 1-2.435 2.621 1.623 1.623 0 0 1-1.77-1.81c0-2.247 2.519-2.539 4.205-2.539v1.727M89.494 17.557a1.6 1.6 0 0 1 1.708-1.582c1.311 0 1.6.542 1.852 1.124l.311.749h.229l.126-2.186a14.212 14.212 0 0 0-2.165-.249c-2.581 0-3.642 1.6-3.642 2.748 0 2.955 4.642 2.517 4.642 5.12 0 1.207-1 1.727-2.039 1.727a2.106 2.106 0 0 1-1.334-.417 4.075 4.075 0 0 1-.728-1.644h-.228l-.125 2.434a13.975 13.975 0 0 0 1.895.189c3.308 0 4.142-1.624 4.142-2.873 0-3.329-4.642-2.664-4.642-5.141M28.072 10.363a58.842 58.842 0 0 1-8.536 5.591c-.793 3.786-1.724 7.4-3.32 9.894 3.5-1.712 6.923-6.267 8.713-10.174a10.751 10.751 0 0 1 4.535 2.424 15.538 15.538 0 0 0-1.393-7.735M24.874 0c-1.4 1.252-2.355 3.362-3.11 5.89 1.71.453 3.3.838 4.715 1.075-1.1-2.3-1.982-4.485-1.6-6.965M-.002 2.618a25.771 25.771 0 0 1 16.305 9.213c-2.492 2.693-5.852 7.283-6.634 11.771 1.853-2.861 5.831-5.283 9.866-7.647.723-3.459 1.334-7.058 2.229-10.063-6.748-1.79-15.3-4.6-21.765-3.273"/><path d="M26.479 6.965c.521 1.094 1.09 2.211 1.592 3.4a9.56 9.56 0 0 0 2.642-3.344 10.259 10.259 0 0 1-4.234-.054"/><path d="M26.479 6.965c-1.414-.237-3.005-.622-4.715-1.075-.894 3.006-1.5 6.6-2.228 10.064a58.888 58.888 0 0 0 8.535-5.591c-.5-1.187-1.071-2.3-1.592-3.4M35.274 30.246l-.262-.7a1.528 1.528 0 0 0-.722-.174c-.84 0-1.488.56-1.488 1.817 0 1.407.816 1.842 1.488 1.842a1.628 1.628 0 0 0 .747-.161l.274-.741h.087c0 .169-.013.336-.013.5s.013.336.013.5a4.53 4.53 0 0 1-1.034.143 2.029 2.029 0 0 1-2.2-1.954 2.213 2.213 0 0 1 2.222-2.191 4.291 4.291 0 0 1 .972.1c0 .168-.013.342-.013.51s.013.336.013.51zM36.532 33.113c.26-.085.475-.136.487-.221.017-.114.017-2.246.017-2.92a2.136 2.136 0 0 0-.039-.481.137.137 0 0 0-.091-.062l-.334-.108v-.079a8.278 8.278 0 0 0 .928-.046c-.011.385-.028.77-.035 1.155l-.011.611h.011a1.13 1.13 0 0 1 .962-.475c.357 0 .855.1.855.673 0 .176-.011.47-.011.99 0 .6 0 .685.051.781s.306.142.453.181v.079a7.107 7.107 0 0 0-.719-.045c-.3 0-.458.023-.73.045v-.079c.283-.073.424-.1.475-.2a8.1 8.1 0 0 0 .039-1.426c0-.4-.1-.781-.64-.781a.718.718 0 0 0-.736.776v.747a2.619 2.619 0 0 0 .051.685 1.384 1.384 0 0 0 .464.2v.079c-.238-.023-.464-.045-.7-.045-.255 0-.5.023-.747.045zM41.026 32.463c0-.611.685-.691 1.142-.691v.47a.656.656 0 0 1-.661.714.441.441 0 0 1-.481-.493zm1.142.73a2.581 2.581 0 0 1 .414-.045 2.921 2.921 0 0 1 .435.045v-.083c-.356-.068-.419-.1-.419-.368v-1.579c0-.526-.4-.679-.848-.679a1.184 1.184 0 0 0-1.036.651l.142.08a.919.919 0 0 1 .752-.436c.323 0 .572.118.572.537v.3h-.04c-.933 0-1.589.288-1.589.934a.664.664 0 0 0 .747.7 1.069 1.069 0 0 0 .877-.538h.011zM43.877 30.59c.306 0 .617-.023.922-.046l-.017.419h.011a1.126 1.126 0 0 1 .956-.475c.362 0 .86.1.86.673 0 .176-.011.47-.011.99 0 .6 0 .685.051.781s.305.142.453.181v.079a7.115 7.115 0 0 0-.718-.045c-.3 0-.459.023-.73.045v-.082c.283-.073.424-.1.475-.2a8.108 8.108 0 0 0 .039-1.426c0-.4-.1-.781-.639-.781a.718.718 0 0 0-.736.776v.747a2.587 2.587 0 0 0 .051.685 1.386 1.386 0 0 0 .463.2v.079c-.237-.023-.463-.045-.7-.045-.255 0-.5.023-.747.045v-.08c.26-.085.476-.136.487-.221a10.426 10.426 0 0 0 .017-1.053c0-.962-.033-1.053-.2-1.1l-.283-.073zM48.551 33.71a.876.876 0 0 1 .408-.611l.73.073c.373.039.458.125.458.357 0 .419-.464.668-.984.668-.284-.002-.612-.161-.612-.487zm2.082-3.164-.735.057a1.531 1.531 0 0 0-.554-.114 1.073 1.073 0 0 0-1.092 1.047.77.77 0 0 0 .549.741c-.226.2-.43.453-.43.572 0 .175.329.226.453.221v.011c-.571.385-.7.543-.7.809 0 .379.453.493.792.493.719 0 1.664-.362 1.664-1.075 0-.243-.152-.458-.628-.5l-.8-.068c-.113-.011-.35-.045-.35-.2a.534.534 0 0 1 .1-.233.927.927 0 0 0 .305.034 1.1 1.1 0 0 0 1.155-1.052.646.646 0 0 0-.159-.447l.458-.176zm-.752.877c0 .5-.2.764-.577.764s-.577-.374-.577-.781c0-.374.17-.8.565-.8.447.004.589.437.589.816zM51.751 33.113l.323-.1c.124-.039.142-.1.142-.991 0-1.182-.029-1.222-.176-1.268l-.289-.085v-.079a8.291 8.291 0 0 0 .929-.046c-.011.08-.035.566-.035.917v1.131c0 .278.028.385.181.43l.283.091v.079a7.19 7.19 0 0 0-.7-.045 6.011 6.011 0 0 0-.657.045zm.934-3.446a.306.306 0 1 1-.611 0 .306.306 0 0 1 .611 0zM54.148 30.59c.305 0 .617-.023.923-.046l-.018.419h.011a1.126 1.126 0 0 1 .957-.475c.362 0 .859.1.859.673 0 .176-.011.47-.011.99 0 .6 0 .685.051.781s.306.142.453.181v.079a7.13 7.13 0 0 0-.719-.045c-.3 0-.458.023-.729.045v-.082c.283-.073.424-.1.475-.2a8.247 8.247 0 0 0 .039-1.426c0-.4-.1-.781-.639-.781a.718.718 0 0 0-.736.776v.747a2.619 2.619 0 0 0 .051.685 1.384 1.384 0 0 0 .464.2v.079c-.238-.023-.464-.045-.7-.045-.255 0-.5.023-.747.045v-.08c.26-.085.475-.136.487-.221a10.445 10.445 0 0 0 .017-1.053c0-.962-.034-1.053-.2-1.1l-.283-.073zM58.651 33.71a.876.876 0 0 1 .408-.611l.73.073c.374.039.459.125.459.357 0 .419-.464.668-.985.668-.283-.002-.612-.161-.612-.487zm2.083-3.164-.736.057a1.528 1.528 0 0 0-.554-.114 1.073 1.073 0 0 0-1.092 1.047.771.771 0 0 0 .549.741c-.227.2-.431.453-.431.572 0 .175.329.226.453.221v.011c-.571.385-.7.543-.7.809 0 .379.453.493.793.493.718 0 1.663-.362 1.663-1.075 0-.243-.152-.458-.628-.5l-.8-.068c-.114-.011-.35-.045-.35-.2a.533.533 0 0 1 .1-.233.923.923 0 0 0 .305.034 1.1 1.1 0 0 0 1.154-1.052.646.646 0 0 0-.158-.447l.458-.176zm-.753.877c0 .5-.2.764-.577.764s-.577-.374-.577-.781c0-.374.17-.8.566-.8.447.004.588.437.588.816zM65.205 30.736h-.453v-.1a1.213 1.213 0 0 0 .8-.713h.079v.662h.652v.152h-.652v1.909a.317.317 0 0 0 .283.357.661.661 0 0 0 .419-.221l.085.108a1.193 1.193 0 0 1-.792.367c-.147 0-.441-.068-.441-.525 0-.255.018-.73.018-1.047zM67.921 31.79c0-.656.221-1.182.792-1.182.623 0 .815.8.815 1.3s-.153 1.223-.753 1.223c-.56 0-.854-.594-.854-1.341zm2.116 0a1.222 1.222 0 0 0-1.262-1.3 1.326 1.326 0 0 0-1.364 1.4 1.269 1.269 0 0 0 1.291 1.364 1.365 1.365 0 0 0 1.335-1.464zM71.022 33.11l.373-.125c.1-.033.13-.09.13-.2V31.21c0-.374-.023-.4-.114-.43l-.356-.114v-.079c.339 0 .565-.023.917-.046-.006.142-.011.288-.011.408h.011a1.083 1.083 0 0 1 .888-.465c.351 0 .713.091.786.492a1.087 1.087 0 0 1 .877-.492c.572 0 .855.26.855.673 0 .368-.016.742-.016 1.109 0 .623.016.69.164.736l.34.107v.079a6.3 6.3 0 0 0-.7-.045 7.125 7.125 0 0 0-.724.045v-.078l.333-.107c.119-.04.153-.091.153-.278v-1.386c0-.51-.288-.634-.572-.634a.71.71 0 0 0-.7.781v1.041c0 .34.006.436.181.492l.266.091v.079a6.646 6.646 0 0 0-.685-.045 6.183 6.183 0 0 0-.661.045v-.079l.317-.1c.085-.029.152-.085.152-.346v-1.392a.51.51 0 0 0-.554-.566.707.707 0 0 0-.719.673v1.211c0 .312.034.357.147.4l.329.125v.079c-.226-.023-.464-.045-.7-.045s-.453.023-.713.045zM77.245 31.79c0-.656.221-1.182.793-1.182.623 0 .814.8.814 1.3s-.152 1.223-.752 1.223c-.56 0-.855-.594-.855-1.341zm2.117 0a1.223 1.223 0 0 0-1.262-1.3 1.325 1.325 0 0 0-1.364 1.4 1.268 1.268 0 0 0 1.29 1.364 1.365 1.365 0 0 0 1.336-1.464zM80.352 33.11l.362-.136c.079-.028.118-.062.118-.4v-.894c0-.86-.006-.888-.124-.917l-.357-.1v-.079c.317 0 .628-.023.934-.046-.006.176-.018.357-.018.521h.011a1.056 1.056 0 0 1 .8-.577.861.861 0 0 1 .209.034v.532h-.045a.584.584 0 0 0-.419-.17c-.322 0-.561.232-.561.713v.922c0 .368.04.419.136.447l.436.147v.079c-.26-.023-.509-.045-.764-.045s-.481.023-.719.045zM83.3 33.11l.362-.136c.079-.028.118-.062.118-.4v-.894c0-.86-.006-.888-.124-.917l-.357-.1v-.079c.317 0 .628-.023.934-.046 0 .176-.016.357-.016.521h.011a1.055 1.055 0 0 1 .8-.577.85.85 0 0 1 .209.034v.532h-.045a.583.583 0 0 0-.419-.17c-.323 0-.561.232-.561.713v.922c0 .368.039.419.136.447l.436.147v.079c-.26-.023-.509-.045-.764-.045s-.481.023-.718.045zM86.752 31.79c0-.656.22-1.182.792-1.182.623 0 .815.8.815 1.3s-.153 1.223-.752 1.223c-.561 0-.855-.594-.855-1.341zm2.117 0a1.223 1.223 0 0 0-1.262-1.3 1.325 1.325 0 0 0-1.364 1.4 1.268 1.268 0 0 0 1.29 1.364 1.365 1.365 0 0 0 1.336-1.464zM89.66 30.544a6.441 6.441 0 0 0 .662.046c.232 0 .464-.023.7-.046v.085l-.379.135c-.073.029-.1.04-.1.068a2.559 2.559 0 0 0 .118.5l.374 1.206.787-1.766-.368-.147v-.08a5.506 5.506 0 0 0 .617.046c.249 0 .5-.023.741-.046v.08l-.5.147.628 1.766.639-1.613a.586.586 0 0 0 .046-.136c0-.023-.085-.056-.385-.164v-.08a3.849 3.849 0 0 0 .52.046 2.114 2.114 0 0 0 .385-.046v.108c-.17.073-.187.09-.295.317-.243.515-.7 1.613-1 2.314h-.119l-.786-2.252-1.046 2.252h-.108c-.238-.843-.458-1.691-.769-2.489l-.351-.17z"/></g></svg>