<svg height="36.354" viewBox="0 0 107.924 36.354" width="107.924" xmlns="http://www.w3.org/2000/svg"><g fill="#ad1aac"><path d="m42.5 69.063h1.138v1.625h.054a2.825 2.825 0 0 1 2.708-1.788v1.138c-1.463.054-2.167.975-2.709 2.655v4.607h-1.137v-8.237z" transform="translate(-32.206 -41.269)"/><path d="m53.713 77.56c-2.276 0-3.413-1.9-3.413-4.28s1.138-4.28 3.413-4.28 3.413 1.9 3.413 4.28c-.054 2.384-1.192 4.28-3.413 4.28m0-7.639c-1.354 0-2.276 1.192-2.276 3.3s.867 3.3 2.276 3.3c1.354 0 2.276-1.192 2.276-3.3-.054-2.113-.921-3.3-2.276-3.3" transform="translate(-35.78 -41.315)"/><path d="m66.551 72.126 1.788-2.926h1.246l-2.33 3.955 2.709 4.334h-1.3l-2.113-3.413-2 3.413h-1.251l2.6-4.334-2.437-3.955h1.3z" transform="translate(-41.737 -41.406)"/><path d="m76.371 70.634a3.381 3.381 0 0 1 3.088-1.734c1.409 0 2.871.65 2.871 2.492v4.172a4.774 4.774 0 0 0 .217 1.788h-1.192l-.108-1.138a3.736 3.736 0 0 1 -2.763 1.3 2.188 2.188 0 0 1 -2.384-2.275c0-1.842 1.409-2.709 5.093-3.359v-.433c0-1.084-.7-1.517-1.68-1.517a2.126 2.126 0 0 0 -2.113 1.3zm4.822 2.221c-2.655.488-3.9 1.246-3.9 2.384a1.4 1.4 0 0 0 1.354 1.3 3.846 3.846 0 0 0 2.546-1.354z" transform="translate(-47.602 -41.269)"/><path d="m96.718 63.2v9.7a10.622 10.622 0 0 0 .054 1.842h-1.029l-.163-.813a2.664 2.664 0 0 1 -2.167.975c-1.463-.004-3.413-.977-3.413-4.282 0-3.2 1.95-4.28 3.359-4.28a3.392 3.392 0 0 1 2.167.921l.054.054v-4.009h1.138zm-1.138 5.2a2.97 2.97 0 0 0 -2.113-1.138c-1.354 0-2.33.867-2.33 3.359 0 2.113.921 3.251 2.33 3.251a2.866 2.866 0 0 0 2.113-1.138z" transform="translate(-53.971 -38.657)"/><path d="m111.476 77.489v-1.137h-.054a3.341 3.341 0 0 1 -2.438 1.3 2.2 2.2 0 0 1 -2.384-2.438v-6.014h1.138v6.014c0 1.084.542 1.463 1.354 1.463a3.942 3.942 0 0 0 2.384-1.246v-6.231h1.138v8.289z" transform="translate(-61.577 -41.406)"/><path d="m120.921 75.283a2.9 2.9 0 0 0 2.384 1.3c1.246 0 1.788-.65 1.788-1.354 0-2.113-4.93-.975-4.822-4.009.054-1.409 1.138-2.276 2.763-2.221a3.486 3.486 0 0 1 2.817 1.463l-.813.7a2.63 2.63 0 0 0 -2.113-1.138c-.975 0-1.517.488-1.517 1.246 0 1.788 4.822.867 4.822 3.955 0 1.625-1.409 2.438-2.926 2.438a4.058 4.058 0 0 1 -3.304-1.563z" transform="translate(-67.718 -41.313)"/><path d="m133.209 66.909v-2.709h1.138v2.709h1.9v.975h-1.9v5.906c0 .379.271.6.921.6.379 0 .7-.054 1.029-.054v.921a6.177 6.177 0 0 1 -1.354.108c-1.246 0-1.788-.325-1.788-1.354v-6.127h-1.355v-.975z" transform="translate(-73.124 -39.115)"/><path d="m141.571 70.634a3.381 3.381 0 0 1 3.088-1.734c1.409 0 2.871.65 2.871 2.492v4.172a4.774 4.774 0 0 0 .217 1.788h-1.192l-.108-1.138a3.736 3.736 0 0 1 -2.763 1.3 2.188 2.188 0 0 1 -2.384-2.276c0-1.842 1.409-2.709 5.093-3.359v-.433c0-1.084-.7-1.517-1.68-1.517a2.126 2.126 0 0 0 -2.113 1.3zm4.822 2.221c-2.655.488-3.9 1.246-3.9 2.384a1.4 1.4 0 0 0 1.354 1.3 3.846 3.846 0 0 0 2.546-1.354z" transform="translate(-77.477 -41.269)"/><path d="m155.609 66.909v-2.709h1.138v2.709h1.9v.975h-1.9v5.906c0 .379.271.6.921.6.379 0 .7-.054 1.029-.054v.921a6.177 6.177 0 0 1 -1.354.108c-1.246 0-1.788-.325-1.788-1.354v-6.127h-1.355v-.975z" transform="translate(-83.388 -39.115)"/></g><path d="m185.8 35.643 10.511-4.443c2.059 1.354 3.522 3.088 3.847 4.876z" fill="#43b02a" transform="translate(-97.868 -23.994)"/><path d="m175.762 23.5h-.108c-4.93 0-3.63 2.655-2.113 5.472z" fill="#ad1aac" transform="translate(-91.622 -20.466)"/><path d="m193.286 27.884a27.462 27.462 0 0 0 -5.906-2.384l-5.58 6.014z" fill="#4ec3e0" transform="translate(-96.035 -21.382)"/><path d="m177.6 30.814 6.556-6.556a26.73 26.73 0 0 0 -5.256-.758z" fill="#ad1aac" transform="translate(-94.111 -20.466)"/><path d="m187.6 51.485a25.981 25.981 0 0 0 6.014-2.492l-11.814-3.793z" fill="#4ec3e0" transform="translate(-96.035 -30.409)"/><path d="m185.8 42.279 10.836 4.659c2-1.571 3.359-3.3 3.576-5.039z" fill="#43b02a" transform="translate(-97.868 -28.897)"/><path d="m173.666 48.3c-1.517 2.871-3.034 5.743 2 5.743h.334z" fill="#ad1aac" transform="translate(-91.639 -31.83)"/><path d="m179.054 52.485a27.923 27.923 0 0 0 5.418-.813l-6.772-6.772z" fill="#ad1aac" transform="translate(-94.156 -30.272)"/><path d="m23.5 44.066v-17.066h9.806v2.492h-6.88v4.443h6.014v2.492h-6.014v5.147h7.26v2.492z" fill="#007a33" transform="translate(-23.5 -22.07)"/><path d="m51.664 35h2.655l-4.009 12.732h-2.547l-4.063-12.732h2.709l2.546 8.994h.108z" fill="#007a33" transform="translate(-32.756 -25.735)"/><path d="m67.1 47.549v-12.732h2.492v1.3h.108a4.963 4.963 0 0 1 3.36-1.517l.217 2.655a6.816 6.816 0 0 0 -.867-.054 5.225 5.225 0 0 0 -2.709.921v9.478h-2.601z" fill="#007a33" transform="translate(-43.478 -25.552)"/><path d="m90.544 41.868h-6.989v1.842c0 1.409.758 1.842 2.167 1.842 1.3 0 2.221-.271 2.221-1.842l2.6.217c-.054 2.817-2.167 3.738-4.822 3.738-2.98 0-4.822-1.084-4.822-4.063v-4.984c0-2.98 1.788-4.118 4.822-4.118 2.98 0 4.822 1.138 4.822 4.118zm-2.655-2.168v-1.082c0-1.409-.758-1.95-2.167-1.95s-2.167.542-2.167 1.95v1.082z" fill="#007a33" transform="translate(-49.801 -25.506)"/><path d="m103.7 47.549v-12.732h2.492v1.246h.108a5.559 5.559 0 0 1 3.467-1.463c2.221 0 3.142 1.409 3.142 3.684v9.316h-2.655v-8.666c0-1.246-.325-1.95-1.517-1.95a3.866 3.866 0 0 0 -2.384 1.192v9.481h-2.653z" fill="#007a33" transform="translate(-60.249 -25.552)"/><path d="m124.317 37.167v-2.167h9.156v2.167l-6.231 8.233v.163h6.339v2.167h-9.481v-2.165l6.176-8.289v-.108z" fill="#007a33" transform="translate(-69.596 -25.735)"/><path d="m144.4 38.509c0-2.98 1.842-4.009 4.822-4.009s4.876.975 4.876 4.009v5.147c0 2.926-1.788 4.063-4.876 4.063s-4.822-1.138-4.822-4.063zm2.655 5.2c0 1.409.813 1.842 2.221 1.842s2.221-.488 2.221-1.842v-5.146c0-1.409-.813-1.842-2.221-1.842s-2.221.488-2.221 1.842z" fill="#007a33" transform="translate(-78.898 -25.506)"/><path d="m163.642 34.925h-.542v-.325h1.517v.325h-.542v1.517h-.433z" fill="#007a33" transform="translate(-87.467 -25.552)"/><path d="m166.3 34.6h.6l.433 1.246.433-1.246h.542v1.842h-.379v-1.3l-.433 1.3h-.325l-.488-1.3v1.3h-.383z" fill="#007a33" transform="translate(-88.933 -25.552)"/><path d="m211.226 25.431-4.226-7.531h8.506z" transform="translate(-107.582 -17.9)"/></svg>